<mxfile host="app.diagrams.net" modified="2024-05-08T09:09:59.806Z" agent="Mozilla/5.0 (Windows NT 10.0; Win64; x64) AppleWebKit/537.36 (KHTML, like Gecko) Chrome/124.0.0.0 Safari/537.36" version="24.2.5" etag="IVuDLJhPg48eI2jY2g32" type="github">
  <diagram name="第 1 页" id="EaSF1WbENF1-Y_hyDcOs">
    <mxGraphModel>
      <root>
        <mxCell id="0" />
        <mxCell id="1" parent="0" />
      </root>
    </mxGraphModel>
  </diagram>
</mxfile>
